{"title":"Really Hot Chick","uid":7353339,"size":536857563,"categoryP":"porn","categoryS":"movies","magnet":"?xt=urn:btih:2a03ffba8539dbcb8f74af92d18a2c1da129f401&amp;dn=Really+Hot+Chick&amp;tr=udp%3A%2F%2Ftracker.openbittorrent.com%3A80&amp;tr=udp%3A%2F%2Fopen.demonii.com%3A1337&amp;tr=udp%3A%2F%2Ftracker.coppersurfer.tk%3A6969&amp;tr=udp%3A%2F%2Fexodus.desync.com%3A6969","seeders":1,"leechers":0,"uploader":"soulless123","files":1,"time":1339680927,"description":"Screen\n &lt;a href=&quot;\nhttp://bayimg.com/MAPdDAAdC&quot; rel=&quot;nofollow&quot; target=&quot;_NEW&quot;&gt;\nhttp://bayimg.com/MAPdDAAdC&lt;/a&gt;\n\nSeeding Time 24/7\n\nDon't Forget To Say Thanks If You Like My Post\n\n\n\n-=Media Info=-\n\n\nFormat : Windows Media\nFile size : 512 MiB\nDuration : 33mn 38s\nOverall bit rate : 2 127 Kbps\nMaximum Overall bit rate : 2 096 Kbps\nEncoded date : UTC 1970-01-01 00:00:00.000\n\nVideo\nID : 1\nFormat : WMV2\nCodec ID : WMV2\nCodec ID/Info : Windows Media Video 8\nDescription of the codec : wmv2\nDuration : 33mn 38s\nBit rate : 1 938 Kbps\nWidth : 720 pixels\nHeight : 400 pixels\nDisplay aspect ratio : 16:9\nFrame rate : 29.970 fps\nBit depth : 8 bits\nBits/(Pixel*Frame) : 0.225\nStream size : 466 MiB (91%)\n\nAudio\nID : 2\nFormat : WMA\nFormat version : Version 2\nCodec ID : 161\nCodec ID/Info : Windows Media Audio\nDescription of the codec : Windows Media Audio V8\nDuration : 33mn 38s\nBit rate : 96.0 Kbps\nChannel(s) : 2 channels\nSampling rate : 44.1 KHz\nBit depth : 16 bits\nStream size : 23.1 MiB (5%)","torrent":{"xt":"urn:btih:2a03ffba8539dbcb8f74af92d18a2c1da129f401","amp;dn":"Really+Hot+Chick","amp;tr":["udp%3A%2F%2Ftracker.openbittorrent.com%3A80","udp%3A%2F%2Fopen.demonii.com%3A1337","udp%3A%2F%2Ftracker.coppersurfer.tk%3A6969","udp%3A%2F%2Fexodus.desync.com%3A6969"],"infoHash":"2a03ffba8539dbcb8f74af92d18a2c1da129f401","infoHashBuffer":{"type":"Buffer","data":[42,3,255,186,133,57,219,203,143,116,175,146,209,138,44,29,161,41,244,1]},"announce":[],"urlList":[]}}